<?xml version="1.0" encoding="utf-8" standalone="no"?>
<!DOCTYPE svg PUBLIC "-//W3C//DTD SVG 1.0//EN" "http://www.w3.org/TR/SVG/DTD/svg11.dtd" >
<svg version="1.1" baseProfile="full"  width="137.2441" height="153.77953" viewBox="0 0 98.81575 110.72126" preserveAspectRatio="xMidYMid" xmlns="http://www.w3.org/2000/svg" >

<g lengthAdjust="spacingAndGlyphs" xml:space='preserve' >
<g  transform="translate(1.19,1.19)" >
<path d="
M0.0 0.0
L0.0 108.34
L96.43 108.34
L96.43 0.0
Z
" fill="none" fill-rule="nonzero" />
<line x1="-124.41" y1="6.54" x2="-124.41" y2="220.84" fill="none" stroke="black" stroke-width="0.87px" stroke-linecap="square" />
<line x1="-112.50" y1="6.54" x2="-112.50" y2="220.84" fill="none" stroke="black" stroke-width="0.25px" stroke-linecap="butt" />
<line x1="-100.60" y1="6.54" x2="-100.60" y2="220.84" fill="none" stroke="black" stroke-width="0.25px" stroke-linecap="butt" />
<line x1="-88.69" y1="6.54" x2="-88.69" y2="220.84" fill="none" stroke="black" stroke-width="0.25px" stroke-linecap="butt" />
<line x1="-76.79" y1="6.54" x2="-76.79" y2="220.84" fill="none" stroke="black" stroke-width="0.25px" stroke-linecap="butt" />
<line x1="-64.88" y1="6.54" x2="-64.88" y2="220.84" fill="none" stroke="black" stroke-width="0.25px" stroke-linecap="butt" />
<line x1="-52.97" y1="6.54" x2="-52.97" y2="220.84" fill="none" stroke="black" stroke-width="0.25px" stroke-linecap="butt" />
<line x1="-41.07" y1="6.54" x2="-41.07" y2="220.84" fill="none" stroke="black" stroke-width="0.25px" stroke-linecap="butt" />
<line x1="-29.16" y1="6.54" x2="-29.16" y2="220.84" fill="none" stroke="black" stroke-width="0.25px" stroke-linecap="butt" />
<line x1="-17.26" y1="6.54" x2="-17.26" y2="220.84" fill="none" stroke="black" stroke-width="0.25px" stroke-linecap="butt" />
<line x1="-5.35" y1="6.54" x2="-5.35" y2="220.84" fill="none" stroke="black" stroke-width="0.25px" stroke-linecap="butt" />
<line x1="6.54" y1="6.54" x2="6.54" y2="220.84" fill="none" stroke="black" stroke-width="0.25px" stroke-linecap="butt" />
<line x1="18.45" y1="6.54" x2="18.45" y2="220.84" fill="none" stroke="black" stroke-width="0.25px" stroke-linecap="butt" />
<line x1="30.35" y1="6.54" x2="30.35" y2="220.84" fill="none" stroke="black" stroke-width="0.25px" stroke-linecap="butt" />
<line x1="42.26" y1="6.54" x2="42.26" y2="220.84" fill="none" stroke="black" stroke-width="0.25px" stroke-linecap="butt" />
<line x1="54.17" y1="6.54" x2="54.17" y2="220.84" fill="none" stroke="black" stroke-width="0.25px" stroke-linecap="butt" />
<line x1="66.07" y1="6.54" x2="66.07" y2="220.84" fill="none" stroke="black" stroke-width="0.25px" stroke-linecap="butt" />
<line x1="77.98" y1="6.54" x2="77.98" y2="220.84" fill="none" stroke="black" stroke-width="0.25px" stroke-linecap="butt" />
<line x1="89.88" y1="6.54" x2="89.88" y2="220.84" fill="none" stroke="black" stroke-width="0.87px" stroke-linecap="square" />
<line x1="-124.41" y1="6.54" x2="89.88" y2="6.54" fill="none" stroke="black" stroke-width="0.87px" stroke-linecap="square" />
<line x1="-124.41" y1="18.45" x2="89.88" y2="18.45" fill="none" stroke="black" stroke-width="0.25px" stroke-linecap="butt" />
<line x1="-124.41" y1="30.35" x2="89.88" y2="30.35" fill="none" stroke="black" stroke-width="0.25px" stroke-linecap="butt" />
<line x1="-124.41" y1="42.26" x2="89.88" y2="42.26" fill="none" stroke="black" stroke-width="0.25px" stroke-linecap="butt" />
<line x1="-124.41" y1="54.17" x2="89.88" y2="54.17" fill="none" stroke="black" stroke-width="0.25px" stroke-linecap="butt" />
<line x1="-124.41" y1="66.07" x2="89.88" y2="66.07" fill="none" stroke="black" stroke-width="0.25px" stroke-linecap="butt" />
<line x1="-124.41" y1="77.98" x2="89.88" y2="77.98" fill="none" stroke="black" stroke-width="0.25px" stroke-linecap="butt" />
<line x1="-124.41" y1="89.88" x2="89.88" y2="89.88" fill="none" stroke="black" stroke-width="0.25px" stroke-linecap="butt" />
<line x1="-124.41" y1="101.79" x2="89.88" y2="101.79" fill="none" stroke="black" stroke-width="0.25px" stroke-linecap="butt" />
<line x1="-124.41" y1="113.69" x2="89.88" y2="113.69" fill="none" stroke="black" stroke-width="0.25px" stroke-linecap="butt" />
<line x1="-124.41" y1="125.60" x2="89.88" y2="125.60" fill="none" stroke="black" stroke-width="0.25px" stroke-linecap="butt" />
<line x1="-124.41" y1="137.50" x2="89.88" y2="137.50" fill="none" stroke="black" stroke-width="0.25px" stroke-linecap="butt" />
<line x1="-124.41" y1="149.41" x2="89.88" y2="149.41" fill="none" stroke="black" stroke-width="0.25px" stroke-linecap="butt" />
<line x1="-124.41" y1="161.31" x2="89.88" y2="161.31" fill="none" stroke="black" stroke-width="0.25px" stroke-linecap="butt" />
<line x1="-124.41" y1="173.22" x2="89.88" y2="173.22" fill="none" stroke="black" stroke-width="0.25px" stroke-linecap="butt" />
<line x1="-124.41" y1="185.13" x2="89.88" y2="185.13" fill="none" stroke="black" stroke-width="0.25px" stroke-linecap="butt" />
<line x1="-124.41" y1="197.03" x2="89.88" y2="197.03" fill="none" stroke="black" stroke-width="0.25px" stroke-linecap="butt" />
<line x1="-124.41" y1="208.94" x2="89.88" y2="208.94" fill="none" stroke="black" stroke-width="0.25px" stroke-linecap="butt" />
<line x1="-124.41" y1="220.84" x2="89.88" y2="220.84" fill="none" stroke="black" stroke-width="0.87px" stroke-linecap="square" />
<circle cx="-88.69" cy="42.26" r="1.27" fill="black"/>
<circle cx="-88.69" cy="113.69" r="1.27" fill="black"/>
<circle cx="-88.69" cy="185.13" r="1.27" fill="black"/>
<circle cx="-17.26" cy="42.26" r="1.27" fill="black"/>
<circle cx="-17.26" cy="113.69" r="1.27" fill="black"/>
<circle cx="-17.26" cy="185.13" r="1.27" fill="black"/>
<circle cx="30.35" cy="18.45" r="5.85" fill="white"/>
<circle cx="30.35" cy="18.45" r="5.85" fill="none" stroke="black" stroke-width="0.25px"/>
<circle cx="54.17" cy="18.45" r="5.85" fill="white"/>
<circle cx="54.17" cy="18.45" r="5.85" fill="none" stroke="black" stroke-width="0.25px"/>
<circle cx="54.17" cy="30.35" r="5.85" fill="white"/>
<circle cx="54.17" cy="30.35" r="5.85" fill="none" stroke="black" stroke-width="0.25px"/>
<circle cx="54.17" cy="42.26" r="5.85" fill="white"/>
<circle cx="54.17" cy="42.26" r="5.85" fill="none" stroke="black" stroke-width="0.25px"/>
<circle cx="54.17" cy="54.17" r="5.85" fill="white"/>
<circle cx="54.17" cy="54.17" r="5.85" fill="none" stroke="black" stroke-width="0.25px"/>
<circle cx="54.17" cy="113.69" r="1.27" fill="black"/>
<circle cx="54.17" cy="185.13" r="1.27" fill="black"/>
<circle cx="66.07" cy="6.54" r="5.98" fill="black"/>
<circle cx="66.07" cy="18.45" r="5.98" fill="black"/>
<circle cx="66.07" cy="30.35" r="5.98" fill="black"/>
<circle cx="66.07" cy="42.26" r="5.98" fill="black"/>
<circle cx="66.07" cy="54.17" r="5.85" fill="white"/>
<circle cx="66.07" cy="54.17" r="5.85" fill="none" stroke="black" stroke-width="0.25px"/>
<circle cx="66.07" cy="66.07" r="5.85" fill="white"/>
<circle cx="66.07" cy="66.07" r="5.85" fill="none" stroke="black" stroke-width="0.25px"/>
<circle cx="77.98" cy="18.45" r="5.85" fill="white"/>
<circle cx="77.98" cy="18.45" r="5.85" fill="none" stroke="black" stroke-width="0.25px"/>
<circle cx="77.98" cy="30.35" r="5.98" fill="black"/>
<circle cx="77.98" cy="54.17" r="5.98" fill="black"/>
<circle cx="77.98" cy="66.07" r="5.85" fill="white"/>
<circle cx="77.98" cy="66.07" r="5.85" fill="none" stroke="black" stroke-width="0.25px"/>
<circle cx="77.98" cy="89.88" r="5.85" fill="white"/>
<circle cx="77.98" cy="89.88" r="5.85" fill="none" stroke="black" stroke-width="0.25px"/>
<circle cx="89.88" cy="18.45" r="5.85" fill="white"/>
<circle cx="89.88" cy="18.45" r="5.85" fill="none" stroke="black" stroke-width="0.25px"/>
<circle cx="89.88" cy="42.26" r="5.98" fill="black"/>
<circle cx="89.88" cy="66.07" r="5.98" fill="black"/>
<circle cx="89.88" cy="77.98" r="5.85" fill="white"/>
<circle cx="89.88" cy="77.98" r="5.85" fill="none" stroke="black" stroke-width="0.25px"/>
<text x="63.83" y="10.08" fill="white" font-family="'Arial Narrow', '-apple-system'" font-stretch="condensed" font-size="9.82px" textLength="4.48">2</text>
<text x="63.83" y="57.76" fill="black" font-family="'Arial Narrow', '-apple-system'" font-stretch="condensed" font-size="9.82px" textLength="4.48">3</text>
<text x="75.73" y="21.98" fill="black" font-family="'Arial Narrow', '-apple-system'" font-stretch="condensed" font-size="9.82px" textLength="4.48">5</text>
<text x="75.73" y="33.95" fill="white" font-family="'Arial Narrow', '-apple-system'" font-stretch="condensed" font-size="9.82px" textLength="4.48">6</text>
<text x="87.64" y="21.98" fill="black" font-family="'Arial Narrow', '-apple-system'" font-stretch="condensed" font-size="9.82px" textLength="4.48">1</text>
<text x="87.64" y="45.85" fill="white" font-family="'Arial Narrow', '-apple-system'" font-stretch="condensed" font-size="9.82px" textLength="4.48">8</text>
<text x="87.64" y="69.59" fill="white" font-family="'Arial Narrow', '-apple-system'" font-stretch="condensed" font-size="9.82px" textLength="4.48">4</text>
<text x="87.64" y="81.45" fill="black" font-family="'Arial Narrow', '-apple-system'" font-stretch="condensed" font-size="9.82px" textLength="4.48">7</text>
</g>
</g>
</svg>
